<svg width="132" height="132" viewBox="0 0 132 132" fill="none" xmlns="http://www.w3.org/2000/svg">
<circle cx="66" cy="66" r="66" fill="#82468B"/>
<path d="M40.648 84V48.96H51.736C54.072 48.96 56.088 49.392 57.784 50.256C59.512 51.12 60.856 52.336 61.816 53.904C62.776 55.44 63.256 57.264 63.256 59.376C63.256 61.68 62.664 63.712 61.48 65.472C60.328 67.232 58.76 68.48 56.776 69.216L63.736 84H57.016L50.92 70.08H46.648V84H40.648ZM46.648 64.8H51.736C53.432 64.8 54.76 64.336 55.72 63.408C56.68 62.48 57.16 61.2 57.16 59.568C57.16 57.904 56.68 56.608 55.72 55.68C54.76 54.72 53.432 54.24 51.736 54.24H46.648V64.8ZM78.7413 84.528C75.1893 84.528 72.3733 83.552 70.2933 81.6C68.2453 79.616 67.2213 76.96 67.2213 73.632H73.2213C73.2213 75.392 73.7173 76.768 74.7093 77.76C75.7013 78.752 77.0453 79.248 78.7413 79.248C80.4373 79.248 81.7813 78.768 82.7733 77.808C83.7653 76.816 84.2613 75.44 84.2613 73.68V54.528H76.1013V48.96H90.2613V73.68C90.2613 77.04 89.2213 79.696 87.1413 81.648C85.0933 83.568 82.2933 84.528 78.7413 84.528Z" fill="white"/>
</svg>
